<svg xmlns="http://www.w3.org/2000/svg" version="1.1" x="0" y="0" width="500" height="105" viewBox="0 0 500 105" xml:space="preserve"><style type="text/css">
	.st0{fill:#E89500;}
	.st1{fill:#496E31;}
</style><path class="st0" d="M7 17.2c-1.2 0-2.2-0.2-3.1-0.6 -0.9-0.4-1.6-0.9-2.2-1.6 -0.6-0.6-1-1.4-1.3-2.2C0 12-0.1 11.2-0.1 10.3c0-0.9 0.1-1.7 0.4-2.6 0.3-0.9 0.7-1.6 1.3-2.2C2.3 4.8 3 4.3 3.9 3.9 4.8 3.5 5.8 3.3 7 3.3h65.3c1.2 0 2.2 0.2 3 0.6 0.9 0.4 1.6 0.9 2.2 1.6 0.6 0.6 1 1.4 1.3 2.2 0.3 0.8 0.4 1.7 0.4 2.6 0 0.9-0.1 1.7-0.4 2.6 -0.3 0.8-0.7 1.6-1.3 2.2 -0.6 0.7-1.3 1.2-2.2 1.6 -0.9 0.4-1.9 0.6-3.1 0.6H49.1v76.5c0 1.5-0.3 2.8-0.8 3.9 -0.5 1.1-1.2 2.1-2.1 2.8 -0.9 0.8-1.9 1.3-3 1.7 -1.1 0.4-2.2 0.6-3.4 0.6 -1.2 0-2.3-0.2-3.4-0.6 -1.1-0.4-2.1-0.9-3-1.7 -0.9-0.8-1.6-1.7-2.1-2.8 -0.5-1.1-0.8-2.4-0.8-3.9V17.2H7zM59.6 68.1c0-4.2 0.7-8.6 2.2-12.9 1.5-4.4 3.7-8.3 6.7-11.6 3-3.3 6.8-6 11.3-8 4.5-2 9.9-3 16-3 6.1 0 11.5 1 16 3 4.5 2 8.3 4.6 11.3 8 3 3.3 5.3 7.2 6.7 11.6 1.5 4.4 2.2 8.7 2.2 12.9 0 4.2-0.7 8.5-2.2 12.8 -1.5 4.4-3.7 8.2-6.7 11.5 -3 3.3-6.8 6-11.3 8 -4.5 2-9.9 3-16 3 -6.1 0-11.5-1-16-3 -4.5-2-8.3-4.6-11.3-8 -3-3.3-5.2-7.2-6.7-11.5C60.4 76.6 59.6 72.3 59.6 68.1zM76.7 68.1c0 2.7 0.4 5.6 1.1 8.7 0.7 3.1 1.8 5.8 3.4 8.1 1.5 2.4 3.5 4.3 5.9 5.7 2.4 1.4 5.3 2.1 8.7 2.1 3.4 0 6.3-0.7 8.7-2.1 2.4-1.4 4.4-3.3 5.9-5.7 1.5-2.4 2.7-5.1 3.4-8.1 0.7-3.1 1.1-6 1.1-8.7 0-2.7-0.4-5.6-1.1-8.7 -0.7-3.1-1.8-5.8-3.4-8.2 -1.5-2.4-3.5-4.3-5.9-5.7 -2.4-1.4-5.3-2.1-8.7-2.1 -3.4 0-6.3 0.7-8.7 2.1 -2.4 1.4-4.4 3.3-5.9 5.7 -1.5 2.4-2.7 5.1-3.4 8.2C77.1 62.5 76.7 65.4 76.7 68.1zM132.4 68.1c0-4.2 0.7-8.6 2.2-12.9 1.5-4.4 3.7-8.3 6.7-11.6 3-3.3 6.8-6 11.3-8 4.5-2 9.9-3 16-3 6.1 0 11.5 1 16 3 4.5 2 8.3 4.6 11.3 8 3 3.3 5.3 7.2 6.7 11.6 1.5 4.4 2.2 8.7 2.2 12.9 0 4.2-0.7 8.5-2.2 12.8 -1.5 4.4-3.7 8.2-6.7 11.5 -3 3.3-6.8 6-11.3 8 -4.5 2-9.9 3-16 3 -6.1 0-11.5-1-16-3 -4.5-2-8.3-4.6-11.3-8 -3-3.3-5.2-7.2-6.7-11.5C133.1 76.6 132.4 72.3 132.4 68.1zM149.5 68.1c0 2.7 0.4 5.6 1.1 8.7 0.7 3.1 1.8 5.8 3.4 8.1 1.5 2.4 3.5 4.3 5.9 5.7 2.4 1.4 5.3 2.1 8.7 2.1 3.4 0 6.3-0.7 8.7-2.1 2.4-1.4 4.4-3.3 5.9-5.7 1.5-2.4 2.7-5.1 3.4-8.1 0.7-3.1 1.1-6 1.1-8.7 0-2.7-0.4-5.6-1.1-8.7 -0.7-3.1-1.8-5.8-3.4-8.2 -1.5-2.4-3.5-4.3-5.9-5.7 -2.4-1.4-5.3-2.1-8.7-2.1 -3.4 0-6.3 0.7-8.7 2.1 -2.4 1.4-4.4 3.3-5.9 5.7 -1.5 2.4-2.7 5.1-3.4 8.2C149.8 62.5 149.5 65.4 149.5 68.1zM209.2 11.3c0-1.3 0.2-2.5 0.7-3.5 0.5-1 1.1-1.8 1.8-2.5 0.8-0.7 1.6-1.2 2.6-1.5 1-0.3 2-0.5 3-0.5 1 0 2 0.2 3 0.5 1 0.3 1.8 0.9 2.6 1.5 0.8 0.7 1.4 1.5 1.8 2.5 0.5 1 0.7 2.2 0.7 3.5v83.2c0 1.3-0.2 2.5-0.7 3.5 -0.5 1-1.1 1.8-1.9 2.5 -0.8 0.7-1.6 1.2-2.6 1.5 -1 0.3-2 0.5-3 0.5 -1 0-2-0.2-3-0.5 -1-0.3-1.8-0.8-2.6-1.5 -0.7-0.7-1.3-1.5-1.8-2.5 -0.5-1-0.7-2.2-0.7-3.5V11.3z"/><path class="st1" d="M234.4 14.4c0-2.2 0.4-4 1.3-5.6 0.9-1.5 2-2.8 3.5-3.8s3.1-1.7 5.1-2.1c1.9-0.5 4-0.7 6.1-0.7h21.4c3.1 0 6.4 0.1 9.7 0.2 3.3 0.1 6.6 0.4 9.7 1 3.2 0.5 6.2 1.3 9 2.3 2.8 1 5.3 2.5 7.4 4.4 2.1 1.9 3.8 4.2 5 7 1.2 2.8 1.9 6.3 1.9 10.3 0 2.7-0.5 5.3-1.4 7.8 -0.9 2.5-2.2 4.8-3.9 6.8 -1.7 2-3.7 3.7-6.1 5.1 -2.3 1.4-4.9 2.4-7.8 2.9v0.3c3.5 0.5 6.6 1.5 9.4 2.9 2.8 1.4 5.1 3.2 7.1 5.3 1.9 2.1 3.4 4.6 4.5 7.3 1.1 2.8 1.6 5.7 1.6 8.9 0 3.5-0.7 6.9-2.1 10.3 -1.4 3.3-3.5 6.3-6.4 8.9 -2.9 2.6-6.5 4.7-10.9 6.3 -4.4 1.6-9.6 2.4-15.6 2.4h-32.5c-2.6 0-4.9-0.2-6.9-0.6 -2-0.4-3.6-1.3-5-2.5 -1.4-1.3-2.4-3.1-3.1-5.4 -0.7-2.3-1-5.4-1-9.2V14.4zM258.7 17.8v27.4h9.9c3 0 5.9-0.2 8.5-0.6 2.6-0.4 4.8-1.2 6.7-2.2 1.9-1.1 3.3-2.5 4.4-4.3 1.1-1.8 1.6-4.1 1.6-6.9 0-2.8-0.5-5.1-1.6-6.8 -1-1.7-2.5-3.1-4.2-4 -1.8-1-3.9-1.6-6.3-2 -2.4-0.3-4.9-0.5-7.6-0.5H258.7zM258.7 87.1h11.5c3.7 0 6.9-0.2 9.7-0.6 2.8-0.4 5.2-1.1 7-2.2 1.9-1.1 3.3-2.6 4.3-4.6 1-2 1.5-4.5 1.5-7.6 0-2.9-0.6-5.3-1.7-7.1 -1.1-1.8-2.7-3.3-4.7-4.4 -2-1.1-4.5-1.8-7.3-2.2 -2.9-0.4-6-0.6-9.5-0.6h-10.8V87.1zM320.6 52.5c0-7.6 1-14.6 3.1-21.1 2-6.4 5.1-12 9.2-16.6 4.1-4.7 9.2-8.3 15.4-10.9s13.4-3.9 21.7-3.9c8.1 0 15.2 1.3 21.3 3.8 6.2 2.5 11.3 6.1 15.5 10.7 4.1 4.6 7.3 10.2 9.4 16.6 2.1 6.4 3.2 13.6 3.2 21.4 0 7.7-1 14.8-3.1 21.2 -2.1 6.4-5.2 12-9.3 16.6 -4.1 4.6-9.3 8.2-15.5 10.8 -6.2 2.6-13.3 3.9-21.5 3.9 -8 0-15-1.2-21.2-3.7 -6.1-2.5-11.3-6-15.5-10.6 -4.2-4.6-7.4-10.1-9.5-16.5C321.7 67.7 320.6 60.5 320.6 52.5zM347.5 52.5c0 11.4 1.8 20 5.5 25.9 3.6 5.8 9.3 8.7 17.1 8.7 7.6 0 13.3-2.9 17-8.7 3.7-5.8 5.6-14.4 5.6-25.9 0-5.5-0.4-10.4-1.3-14.7 -0.9-4.3-2.3-7.9-4.1-10.9 -1.8-2.9-4.2-5.2-7-6.7 -2.8-1.5-6.2-2.3-10.1-2.3 -3.9 0-7.2 0.8-10 2.3 -2.8 1.5-5.2 3.8-7 6.7 -1.8 2.9-3.2 6.6-4.1 10.9C348 42.1 347.5 47 347.5 52.5zM435.8 96.4c-1.5 2.2-3.1 3.7-5 4.7 -1.8 1-3.7 1.5-5.5 1.5 -1.3 0-2.6-0.2-3.8-0.7 -1.2-0.5-2.2-1.2-3.1-2 -0.9-0.9-1.6-1.9-2.1-3.1 -0.5-1.2-0.8-2.6-0.8-4 0-1.5 0.3-3 0.9-4.7 0.6-1.7 1.5-3.4 2.9-5.2l23.4-31.6 -22.1-29.7c-1-1.3-1.7-2.7-2.2-4 -0.4-1.3-0.7-2.6-0.7-3.9 0-1.6 0.3-3.1 0.9-4.5 0.6-1.4 1.5-2.6 2.5-3.6 1-1 2.2-1.8 3.6-2.3 1.4-0.6 2.8-0.9 4.3-0.9 1.8 0 3.6 0.5 5.4 1.5 1.8 1 3.4 2.6 4.9 4.8l19.5 29 19.5-28.3c1.7-2.5 3.6-4.3 5.6-5.4 2-1.1 3.9-1.6 5.7-1.6 1.4 0 2.7 0.3 3.9 0.8 1.2 0.5 2.3 1.2 3.2 2.1s1.6 1.9 2.2 3.1c0.5 1.2 0.8 2.5 0.8 3.8 0 2.3-0.8 4.6-2.4 6.8l-24 32.2 24.2 33.3c0.8 1.1 1.3 2.2 1.7 3.3 0.3 1.2 0.5 2.3 0.5 3.3 0 1.5-0.3 3-0.9 4.4 -0.6 1.4-1.5 2.6-2.5 3.7 -1 1.1-2.2 1.9-3.6 2.6 -1.4 0.6-2.8 1-4.3 1 -1.8 0-3.6-0.5-5.5-1.6 -1.8-1-3.6-2.8-5.2-5.2l-20.6-30.5L435.8 96.4z"/></svg>